<svg xmlns="http://www.w3.org/2000/svg" viewBox="0 0 768 768" width="768" height="768">
  <defs>
    <radialGradient id="glass" cx="50%" cy="44%" r="62%">
      <stop offset="0%" stop-color="#1e1e2e" stop-opacity=".66"></stop>
      <stop offset="68%" stop-color="#181825" stop-opacity=".5"></stop>
      <stop offset="100%" stop-color="#11111b" stop-opacity="0"></stop>
    </radialGradient>
  </defs>
  <circle cx="384" cy="384" r="320" fill="url(#glass)"></circle>
  <circle cx="384" cy="384" r="320" fill="none" stroke="#313244" stroke-width="2.4"></circle>
  <circle cx="384" cy="384" r="313" fill="none" stroke="#2a2a3c" stroke-width="1"></circle>
  <line x1="384.00" y1="64.00" x2="384.00" y2="94.00" stroke="#7f849c" stroke-width="2.6" stroke-linecap="round"></line><line x1="411.89" y1="65.22" x2="411.02" y2="75.18" stroke="rgba(69,71,90,.6)" stroke-width="1.2" stroke-linecap="round"></line><line x1="439.57" y1="68.86" x2="437.83" y2="78.71" stroke="rgba(69,71,90,.6)" stroke-width="1.2" stroke-linecap="round"></line><line x1="466.82" y1="74.90" x2="461.65" y2="94.22" stroke="#585b70" stroke-width="1.8" stroke-linecap="round"></line><line x1="493.45" y1="83.30" x2="490.03" y2="92.70" stroke="rgba(69,71,90,.6)" stroke-width="1.2" stroke-linecap="round"></line><line x1="519.24" y1="93.98" x2="515.01" y2="103.04" stroke="rgba(69,71,90,.6)" stroke-width="1.2" stroke-linecap="round"></line><line x1="544.00" y1="106.87" x2="534.00" y2="124.19" stroke="#585b70" stroke-width="1.8" stroke-linecap="round"></line><line x1="567.54" y1="121.87" x2="561.81" y2="130.06" stroke="rgba(69,71,90,.6)" stroke-width="1.2" stroke-linecap="round"></line><line x1="589.69" y1="138.87" x2="583.26" y2="146.53" stroke="rgba(69,71,90,.6)" stroke-width="1.2" stroke-linecap="round"></line><line x1="610.27" y1="157.73" x2="589.06" y2="178.94" stroke="#7f849c" stroke-width="2.6" stroke-linecap="round"></line><line x1="629.13" y1="178.31" x2="621.47" y2="184.74" stroke="rgba(69,71,90,.6)" stroke-width="1.2" stroke-linecap="round"></line><line x1="646.13" y1="200.46" x2="637.94" y2="206.19" stroke="rgba(69,71,90,.6)" stroke-width="1.2" stroke-linecap="round"></line><line x1="661.13" y1="224.00" x2="643.81" y2="234.00" stroke="#585b70" stroke-width="1.8" stroke-linecap="round"></line><line x1="674.02" y1="248.76" x2="664.96" y2="252.99" stroke="rgba(69,71,90,.6)" stroke-width="1.2" stroke-linecap="round"></line><line x1="684.70" y1="274.55" x2="675.30" y2="277.97" stroke="rgba(69,71,90,.6)" stroke-width="1.2" stroke-linecap="round"></line><line x1="693.10" y1="301.18" x2="673.78" y2="306.35" stroke="#585b70" stroke-width="1.8" stroke-linecap="round"></line><line x1="699.14" y1="328.43" x2="689.29" y2="330.17" stroke="rgba(69,71,90,.6)" stroke-width="1.2" stroke-linecap="round"></line><line x1="702.78" y1="356.11" x2="692.82" y2="356.98" stroke="rgba(69,71,90,.6)" stroke-width="1.2" stroke-linecap="round"></line><line x1="704.00" y1="384.00" x2="674.00" y2="384.00" stroke="#7f849c" stroke-width="2.6" stroke-linecap="round"></line><line x1="702.78" y1="411.89" x2="692.82" y2="411.02" stroke="rgba(69,71,90,.6)" stroke-width="1.2" stroke-linecap="round"></line><line x1="699.14" y1="439.57" x2="689.29" y2="437.83" stroke="rgba(69,71,90,.6)" stroke-width="1.2" stroke-linecap="round"></line><line x1="693.10" y1="466.82" x2="673.78" y2="461.65" stroke="#585b70" stroke-width="1.8" stroke-linecap="round"></line><line x1="684.70" y1="493.45" x2="675.30" y2="490.03" stroke="rgba(69,71,90,.6)" stroke-width="1.2" stroke-linecap="round"></line><line x1="674.02" y1="519.24" x2="664.96" y2="515.01" stroke="rgba(69,71,90,.6)" stroke-width="1.2" stroke-linecap="round"></line><line x1="661.13" y1="544.00" x2="643.81" y2="534.00" stroke="#585b70" stroke-width="1.8" stroke-linecap="round"></line><line x1="646.13" y1="567.54" x2="637.94" y2="561.81" stroke="rgba(69,71,90,.6)" stroke-width="1.2" stroke-linecap="round"></line><line x1="629.13" y1="589.69" x2="621.47" y2="583.26" stroke="rgba(69,71,90,.6)" stroke-width="1.2" stroke-linecap="round"></line><line x1="610.27" y1="610.27" x2="589.06" y2="589.06" stroke="#7f849c" stroke-width="2.6" stroke-linecap="round"></line><line x1="589.69" y1="629.13" x2="583.26" y2="621.47" stroke="rgba(69,71,90,.6)" stroke-width="1.2" stroke-linecap="round"></line><line x1="567.54" y1="646.13" x2="561.81" y2="637.94" stroke="rgba(69,71,90,.6)" stroke-width="1.2" stroke-linecap="round"></line><line x1="544.00" y1="661.13" x2="534.00" y2="643.81" stroke="#585b70" stroke-width="1.8" stroke-linecap="round"></line><line x1="519.24" y1="674.02" x2="515.01" y2="664.96" stroke="rgba(69,71,90,.6)" stroke-width="1.2" stroke-linecap="round"></line><line x1="493.45" y1="684.70" x2="490.03" y2="675.30" stroke="rgba(69,71,90,.6)" stroke-width="1.2" stroke-linecap="round"></line><line x1="466.82" y1="693.10" x2="461.65" y2="673.78" stroke="#585b70" stroke-width="1.8" stroke-linecap="round"></line><line x1="439.57" y1="699.14" x2="437.83" y2="689.29" stroke="rgba(69,71,90,.6)" stroke-width="1.2" stroke-linecap="round"></line><line x1="411.89" y1="702.78" x2="411.02" y2="692.82" stroke="rgba(69,71,90,.6)" stroke-width="1.2" stroke-linecap="round"></line><line x1="384.00" y1="704.00" x2="384.00" y2="674.00" stroke="#7f849c" stroke-width="2.6" stroke-linecap="round"></line><line x1="356.11" y1="702.78" x2="356.98" y2="692.82" stroke="rgba(69,71,90,.6)" stroke-width="1.2" stroke-linecap="round"></line><line x1="328.43" y1="699.14" x2="330.17" y2="689.29" stroke="rgba(69,71,90,.6)" stroke-width="1.2" stroke-linecap="round"></line><line x1="301.18" y1="693.10" x2="306.35" y2="673.78" stroke="#585b70" stroke-width="1.8" stroke-linecap="round"></line><line x1="274.55" y1="684.70" x2="277.97" y2="675.30" stroke="rgba(69,71,90,.6)" stroke-width="1.2" stroke-linecap="round"></line><line x1="248.76" y1="674.02" x2="252.99" y2="664.96" stroke="rgba(69,71,90,.6)" stroke-width="1.2" stroke-linecap="round"></line><line x1="224.00" y1="661.13" x2="234.00" y2="643.81" stroke="#585b70" stroke-width="1.8" stroke-linecap="round"></line><line x1="200.46" y1="646.13" x2="206.19" y2="637.94" stroke="rgba(69,71,90,.6)" stroke-width="1.2" stroke-linecap="round"></line><line x1="178.31" y1="629.13" x2="184.74" y2="621.47" stroke="rgba(69,71,90,.6)" stroke-width="1.2" stroke-linecap="round"></line><line x1="157.73" y1="610.27" x2="178.94" y2="589.06" stroke="#7f849c" stroke-width="2.6" stroke-linecap="round"></line><line x1="138.87" y1="589.69" x2="146.53" y2="583.26" stroke="rgba(69,71,90,.6)" stroke-width="1.2" stroke-linecap="round"></line><line x1="121.87" y1="567.54" x2="130.06" y2="561.81" stroke="rgba(69,71,90,.6)" stroke-width="1.2" stroke-linecap="round"></line><line x1="106.87" y1="544.00" x2="124.19" y2="534.00" stroke="#585b70" stroke-width="1.8" stroke-linecap="round"></line><line x1="93.98" y1="519.24" x2="103.04" y2="515.01" stroke="rgba(69,71,90,.6)" stroke-width="1.2" stroke-linecap="round"></line><line x1="83.30" y1="493.45" x2="92.70" y2="490.03" stroke="rgba(69,71,90,.6)" stroke-width="1.2" stroke-linecap="round"></line><line x1="74.90" y1="466.82" x2="94.22" y2="461.65" stroke="#585b70" stroke-width="1.8" stroke-linecap="round"></line><line x1="68.86" y1="439.57" x2="78.71" y2="437.83" stroke="rgba(69,71,90,.6)" stroke-width="1.2" stroke-linecap="round"></line><line x1="65.22" y1="411.89" x2="75.18" y2="411.02" stroke="rgba(69,71,90,.6)" stroke-width="1.2" stroke-linecap="round"></line><line x1="64.00" y1="384.00" x2="94.00" y2="384.00" stroke="#7f849c" stroke-width="2.6" stroke-linecap="round"></line><line x1="65.22" y1="356.11" x2="75.18" y2="356.98" stroke="rgba(69,71,90,.6)" stroke-width="1.2" stroke-linecap="round"></line><line x1="68.86" y1="328.43" x2="78.71" y2="330.17" stroke="rgba(69,71,90,.6)" stroke-width="1.2" stroke-linecap="round"></line><line x1="74.90" y1="301.18" x2="94.22" y2="306.35" stroke="#585b70" stroke-width="1.8" stroke-linecap="round"></line><line x1="83.30" y1="274.55" x2="92.70" y2="277.97" stroke="rgba(69,71,90,.6)" stroke-width="1.2" stroke-linecap="round"></line><line x1="93.98" y1="248.76" x2="103.04" y2="252.99" stroke="rgba(69,71,90,.6)" stroke-width="1.2" stroke-linecap="round"></line><line x1="106.87" y1="224.00" x2="124.19" y2="234.00" stroke="#585b70" stroke-width="1.8" stroke-linecap="round"></line><line x1="121.87" y1="200.46" x2="130.06" y2="206.19" stroke="rgba(69,71,90,.6)" stroke-width="1.2" stroke-linecap="round"></line><line x1="138.87" y1="178.31" x2="146.53" y2="184.74" stroke="rgba(69,71,90,.6)" stroke-width="1.2" stroke-linecap="round"></line><line x1="157.73" y1="157.73" x2="178.94" y2="178.94" stroke="#7f849c" stroke-width="2.6" stroke-linecap="round"></line><line x1="178.31" y1="138.87" x2="184.74" y2="146.53" stroke="rgba(69,71,90,.6)" stroke-width="1.2" stroke-linecap="round"></line><line x1="200.46" y1="121.87" x2="206.19" y2="130.06" stroke="rgba(69,71,90,.6)" stroke-width="1.2" stroke-linecap="round"></line><line x1="224.00" y1="106.87" x2="234.00" y2="124.19" stroke="#585b70" stroke-width="1.8" stroke-linecap="round"></line><line x1="248.76" y1="93.98" x2="252.99" y2="103.04" stroke="rgba(69,71,90,.6)" stroke-width="1.2" stroke-linecap="round"></line><line x1="274.55" y1="83.30" x2="277.97" y2="92.70" stroke="rgba(69,71,90,.6)" stroke-width="1.2" stroke-linecap="round"></line><line x1="301.18" y1="74.90" x2="306.35" y2="94.22" stroke="#585b70" stroke-width="1.8" stroke-linecap="round"></line><line x1="328.43" y1="68.86" x2="330.17" y2="78.71" stroke="rgba(69,71,90,.6)" stroke-width="1.2" stroke-linecap="round"></line><line x1="356.11" y1="65.22" x2="356.98" y2="75.18" stroke="rgba(69,71,90,.6)" stroke-width="1.2" stroke-linecap="round"></line>
  <circle cx="384" cy="384" r="192" fill="none" stroke="#26263a" stroke-width="1.6"></circle>
  <text x="384.00" y="152.00" fill="#f38ba8" font-family="JetBrains Mono,ui-monospace,monospace" font-weight="700" font-size="36" text-anchor="middle" dominant-baseline="central">N</text><text x="616.00" y="384.00" fill="#a6adc8" font-family="JetBrains Mono,ui-monospace,monospace" font-weight="700" font-size="32" text-anchor="middle" dominant-baseline="central">E</text><text x="384.00" y="616.00" fill="#a6adc8" font-family="JetBrains Mono,ui-monospace,monospace" font-weight="700" font-size="32" text-anchor="middle" dominant-baseline="central">S</text><text x="152.00" y="384.00" fill="#a6adc8" font-family="JetBrains Mono,ui-monospace,monospace" font-weight="700" font-size="32" text-anchor="middle" dominant-baseline="central">O</text>
  <text x="548.05" y="219.95" fill="#6c7086" font-family="JetBrains Mono,ui-monospace,monospace" font-weight="700" font-size="18" text-anchor="middle" dominant-baseline="central">NE</text><text x="548.05" y="548.05" fill="#6c7086" font-family="JetBrains Mono,ui-monospace,monospace" font-weight="700" font-size="18" text-anchor="middle" dominant-baseline="central">SE</text><text x="219.95" y="548.05" fill="#6c7086" font-family="JetBrains Mono,ui-monospace,monospace" font-weight="700" font-size="18" text-anchor="middle" dominant-baseline="central">SO</text><text x="219.95" y="219.95" fill="#6c7086" font-family="JetBrains Mono,ui-monospace,monospace" font-weight="700" font-size="18" text-anchor="middle" dominant-baseline="central">NO</text>
</svg>
